<svg xmlns="http://www.w3.org/2000/svg" width="199" height="42" viewBox="0 0 199 42">
    <g transform="translate(-66.5 -20.214)">
        <g transform="translate(67 25.214)">
            <path fill="#004780" d="M158.913,32c-.444,0-.72-.094-.83-.291L144,11.607V29.591a3.292,3.292,0,0,1-.33,1.83c-.246.387-.812.579-1.7.579h-4.43c-.361,0-.58-.082-.664-.246a3.134,3.134,0,0,1-.04-.708V2.366c0-1.578.59-2.366,1.78-2.366h5.549a.874.874,0,0,1,.744.415l13.458,19.008V2.366Q158.372,0,160.027,0h4.927q.5,0,.5.706V29.553a6.759,6.759,0,0,1-.126,1.824c-.138.416-.619.622-1.449.622Zm-48.595,0q-.743,0-.744-.788V2.53q0-2.527,2.153-2.53h21.2c.3,0,.457.207.457.624v4.15c0,.8-.119,1.284-.353,1.453a3.37,3.37,0,0,1-1.639.248H116.653v6.31H129.86c.611,0,.917.289.917.873v4.895a.552.552,0,0,1-.626.624h-13.5V25.4h14.863c.859,0,1.4.207,1.618.622a4.763,4.763,0,0,1,.207,1.826v3.362q0,.788-.536.788ZM99.834,32a1.983,1.983,0,0,1-1.388-.33,2.283,2.283,0,0,1-.31-1.453V1.868A2.679,2.679,0,0,1,98.425.415C98.616.14,99.032,0,99.669,0h5.466q.578,0,.578.747V31.336a.585.585,0,0,1-.661.664ZM65.747,32c-.3,0-.458-.107-.458-.33V2.532A2.163,2.163,0,0,1,67.734.082h15.32Q95.6.082,95.6,10.728q0,10.608-12.547,10.607H73.24v8.218A2.161,2.161,0,0,1,70.8,32ZM73.24,14.651h8.121a11.544,11.544,0,0,0,3.709-.413A3.215,3.215,0,0,0,87.2,11.5V10.459c0-.109-.016-.359-.04-.747h-.043a3.042,3.042,0,0,0-2.07-2.736,11.164,11.164,0,0,0-3.728-.458H73.24ZM169.51,32c-.386,0-.58-.219-.58-.66V27.932q0-2.529,2.445-2.529h15.361q3.439,0,3.438-2.2,0-2.035-3.438-2.821l-9.688-2.212q-8.779-1.992-8.782-8.755a8.459,8.459,0,0,1,3.274-7.095A12.1,12.1,0,0,1,179.2,0h17.267q.618,0,.619.664v3.11q0,2.827-2.857,2.824h-14.7q-3.107,0-3.1,2.2,0,1.745,3.1,2.824l10.021,2.2Q198,15.686,198,22.911a7.9,7.9,0,0,1-3.728,7.141A15.026,15.026,0,0,1,186.117,32ZM1.244,32c-.386,0-.58-.219-.58-.66V27.932q0-2.529,2.445-2.529h15.36q3.439,0,3.436-2.2,0-2.035-3.436-2.821L8.782,18.172Q.005,16.18,0,9.416A8.459,8.459,0,0,1,3.274,2.321,12.1,12.1,0,0,1,10.932,0H28.2c.412,0,.621.222.621.664v3.11q0,2.827-2.857,2.824h-14.7q-3.105,0-3.106,2.2,0,1.745,3.106,2.824l10.02,2.2q8.449,1.866,8.451,9.091A7.9,7.9,0,0,1,26,30.052,15.009,15.009,0,0,1,17.848,32Zm55.687-.082a.857.857,0,0,1-.905-.573l-2.242-5.479L51.149,19.4h.029L46.688,8.356l-.023.055L46.658,8.4,39.572,25.971c-.006,0-.019,0-.027.012l-1.011,2.566-.918,2.278h.016l-.2.514a.931.931,0,0,1-.944.576H30.856c-.329,0-.493-.068-.493-.207a2.463,2.463,0,0,1,.205-.78L42.232,1.407a1.946,1.946,0,0,1,2.053-1.2H49.09a6.709,6.709,0,0,1,1.438.082c.247.111.5.51.78,1.2l11.623,29.44c.244.657.207.988-.124.988Z" transform="translate(0 0)"/>
            <path fill="#00ADEF" stroke="rgba(0,0,0,0)" stroke-miterlimit="10" d="M17.926,16.791c12.943,6.637,22.729,4.414,34.369-3.764,6.125-4.3,9.468,2.861,3.386,6.618C42.805,27.6,30.053,25.326,17.926,16.791" transform="translate(2.596 1.651)"/>
        </g>
    <rect fill="none" width="198" height="42" transform="translate(67 20.214)"/>
    </g>
</svg>
